# File created by Blade
# Date/Time:  Thu Sep 25 17:33:50 2014
# Frame Rate: 120.000 fps
#------------------------------------------------------
:FULLY-SPECIFIED
:DEGREES
1256
root -7.656304 32.200384 -6.007515 19.932542 33.121364 10.794029
Spine -9.454213 9.593206 -1.312423
Head -17.598557 -31.913503 4.550879
LeftShoulder -3.133661 16.772479 17.293256
LeftArm 61.627990 33.883960 -52.627783
LeftForeArm 41.702560 -0.000000 122.206266
LeftHand -28.260025 0.000000 31.671814
LeftHandThumb1 -26.253704 0.000000 33.147579
RightShoulder -14.675778 12.355356 -24.107813
RightArm 16.995029 -44.747381 82.467437
RightForeArm -28.792086 -0.000000 125.774440
RightHand 7.449669 -0.000000 -38.943693
RightHandThumb1 -24.326973 -0.000000 -32.862282
LeftUpLeg -8.118609 4.879148 -9.182338
LeftLeg 1.427169 -0.000000 -0.000000
LeftFoot -16.856320 16.190703 -16.333756
LeftToeBase 4.094966 -0.000000 -0.000000
RightUpLeg -37.582194 -21.685691 2.437043
RightLeg 34.228555 -0.000000 -0.000000
RightFoot -15.626345 -21.604237 0.100259
RightToeBase 0.020271 -0.000000 -0.000000
1257
root -7.681363 32.211864 -6.042247 20.224969 32.915276 10.708948
Spine -9.744999 9.705952 -1.814637
Head -17.794248 -31.919446 5.516515
LeftShoulder -3.051596 16.949562 17.476053
LeftArm 61.844133 34.006188 -52.451435
LeftForeArm 41.710342 -0.000000 122.062737
LeftHand -28.095932 -0.000000 31.701304
LeftHandThumb1 -26.253704 0.000000 33.147579
RightShoulder -14.971155 12.068238 -23.576215
RightArm 18.190327 -44.769948 81.070703
RightForeArm -29.708333 -0.000000 125.653697
RightHand 7.119985 -0.000000 -39.349450
RightHandThumb1 -24.326973 -0.000000 -32.862282
LeftUpLeg -8.673746 4.503379 -9.072190
LeftLeg 1.729064 -0.000000 -0.000000
LeftFoot -17.027446 16.303658 -16.856032
LeftToeBase 3.955271 -0.000000 -0.000000
RightUpLeg -37.964549 -21.563061 2.631078
RightLeg 34.023995 -0.000000 -0.000000
RightFoot -15.446988 -21.373555 0.153970
RightToeBase -0.064323 -0.000000 0.000000
1258
root -7.704173 32.224064 -6.060164 20.369222 32.849361 10.573627
Spine -9.926134 9.712743 -2.129892
Head -17.903791 -31.905966 6.249313
LeftShoulder -2.913790 17.157824 17.580906
LeftArm 62.033602 34.070026 -52.172929
LeftForeArm 41.521078 -0.000000 121.990742
LeftHand -28.074080 -0.000000 31.725089
LeftHandThumb1 -26.253704 0.000000 33.147579
RightShoulder -15.231683 11.778316 -23.165985
RightArm 19.193659 -44.747163 79.890588
RightForeArm -30.341185 -0.000000 125.537633
RightHand 6.757977 -0.000000 -39.439306
RightHandThumb1 -24.326973 -0.000000 -32.862282
LeftUpLeg -9.052181 4.131895 -8.840643
LeftLeg 1.989303 -0.000000 -0.000000
LeftFoot -17.153614 16.209461 -17.428516
LeftToeBase 3.753770 -0.000000 -0.000000
RightUpLeg -38.172457 -21.628222 2.880352
RightLeg 33.805690 -0.000000 -0.000000
RightFoot -15.286857 -21.050804 0.193583
RightToeBase -0.151396 -0.000000 0.000000
1259
root -7.722767 32.237038 -6.066406 20.386100 32.863840 10.446145
Spine -9.954583 9.626352 -2.374109
Head -17.962208 -31.856816 6.866631
LeftShoulder -2.681414 17.301743 17.749443
LeftArm 62.127700 34.205271 -52.018088
LeftForeArm 41.524572 -0.000000 121.926029
LeftHand -28.322344 -0.000000 31.958286
LeftHandThumb1 -26.253704 0.000000 33.147579
RightShoulder -15.455800 11.569751 -22.874116
RightArm 19.795928 -44.603547 79.206565
RightForeArm -30.560856 -0.000000 125.432393
RightHand 6.685277 -0.000000 -39.184880
RightHandThumb1 -24.326973 -0.000000 -32.862282
LeftUpLeg -9.250472 3.528640 -8.525442
LeftLeg 2.221716 -0.000000 -0.000000
LeftFoot -17.316707 16.174394 -18.132706
LeftToeBase 3.553626 -0.000000 -0.000000
RightUpLeg -38.189641 -21.803695 3.095937
RightLeg 33.551046 -0.000000 -0.000000
RightFoot -15.179842 -20.686421 0.291047
RightToeBase -0.312817 -0.000000 0.000000
1260
root -7.732013 32.247372 -6.062803 20.213313 32.913006 10.304517
Spine -9.775872 9.351247 -2.431842
Head -17.985471 -31.760242 7.219222
LeftShoulder -2.524531 17.489300 17.790234
LeftArm 62.130440 34.231958 -51.965465
LeftForeArm 41.440727 -0.000000 121.866878
LeftHand -28.674575 -0.000000 32.320039
LeftHandThumb1 -26.253704 0.000000 33.147579
RightShoulder -15.430483 11.541380 -22.733445
RightArm 20.061595 -44.447268 78.900763
RightForeArm -30.628528 -0.000000 125.305272
RightHand 6.693809 -0.000000 -38.876436
RightHandThumb1 -24.326973 -0.000000 -32.862282
LeftUpLeg -9.188013 2.946571 -8.163783
LeftLeg 2.344400 -0.000000 -0.000000
LeftFoot -17.450022 15.974715 -18.913067
LeftToeBase 3.321282 -0.000000 -0.000000
RightUpLeg -38.018010 -22.196993 3.330208
RightLeg 33.301018 -0.000000 -0.000000
RightFoot -15.105460 -20.213825 0.193476
RightToeBase -0.400064 -0.000000 0.000000
1261
root -7.733805 32.258784 -6.053643 19.962825 32.989899 10.125187
Spine -9.537223 9.064131 -2.383567
Head -18.024053 -31.616143 7.447772
LeftShoulder -2.336464 17.385250 17.870085
LeftArm 61.748775 34.410984 -52.144782
LeftForeArm 41.207218 -0.000000 121.777118
LeftHand -28.475613 0.000000 32.533290
LeftHandThumb1 -26.253704 0.000000 33.147579
RightShoulder -15.464803 11.531771 -22.745256
RightArm 20.132076 -44.324884 78.809122
RightForeArm -30.692343 0.000000 125.197330
RightHand 6.581135 -0.000000 -38.398772
RightHandThumb1 -24.326973 -0.000000 -32.862282
LeftUpLeg -8.996671 2.294333 -7.774907
LeftLeg 2.333673 -0.000000 -0.000000
LeftFoot -17.567919 15.940218 -19.674292
LeftToeBase 3.077462 -0.000000 -0.000000
RightUpLeg -37.769045 -22.695839 3.599834
RightLeg 33.037436 -0.000000 -0.000000
RightFoot -15.077801 -19.671306 0.143935
RightToeBase -0.483620 -0.000000 0.000000
1262
root -7.728127 32.271547 -6.037549 19.646850 33.076962 9.934013
Spine -9.271475 8.733571 -2.268416
Head -17.944637 -31.458221 7.488407
LeftShoulder -2.079579 17.259058 17.897751
LeftArm 61.174387 34.552500 -52.512057
LeftForeArm 40.591098 -0.000000 121.870986
LeftHand -28.517980 -0.000000 32.385147
LeftHandThumb1 -26.253704 0.000000 33.147579
RightShoulder -15.471459 11.622209 -22.807157
RightArm 20.014909 -44.232905 78.901136
RightForeArm -30.523072 -0.000000 125.054812
RightHand 6.700959 -0.000000 -37.926978
RightHandThumb1 -24.326973 -0.000000 -32.862282
LeftUpLeg -8.676654 1.687156 -7.399285
LeftLeg 2.212511 -0.000000 -0.000000
LeftFoot -17.673361 15.937391 -20.350496
LeftToeBase 2.941920 -0.000000 -0.000000
RightUpLeg -37.435624 -23.265778 3.868190
RightLeg 32.756245 -0.000000 -0.000000
RightFoot -15.083135 -19.006992 0.135428
RightToeBase -0.500594 -0.000000 0.000000
